<svg width="17" height="16" viewBox="0 0 17 16" fill="none" xmlns="http://www.w3.org/2000/svg">
<path d="M15.4434 2.14453L14.3301 1.03125C13.9785 0.679688 13.4805 0.474609 13.0117 0.474609C12.543 0.474609 12.0449 0.679688 11.6934 1.03125L9.49609 3.22852L8.5 4.22461L1.35156 11.373L1 14.7129C0.941406 15.123 1.26367 15.4746 1.67383 15.4746C1.70312 15.4746 1.73242 15.4746 1.76172 15.4746L5.10156 15.123L12.25 7.97461L13.2461 6.97852L15.4434 4.78125C16.1758 4.04883 16.1758 2.87695 15.4434 2.14453ZM4.45703 13.7754L2.49414 13.9805L2.69922 12.0176L9.4668 5.2207L10.375 4.3125L12.1621 6.09961L11.2539 7.00781L4.45703 13.7754ZM14.4473 3.78516L13.1582 5.10352L11.3711 3.31641L12.6895 2.02734C12.8066 1.91016 12.9531 1.88086 13.0117 1.88086C13.0703 1.88086 13.2168 1.91016 13.334 2.02734L14.4473 3.14062C14.623 3.31641 14.623 3.60938 14.4473 3.78516Z" fill="#B5B5B5"/>
</svg>
