<svg width="20" height="18" viewBox="0 0 20 18" fill="none" xmlns="http://www.w3.org/2000/svg">
<path d="M17.9297 4.83789C18.7109 4.25195 19.4141 3.54883 19.9609 2.72852C19.2578 3.04102 18.4375 3.27539 17.6172 3.35352C18.4766 2.8457 19.1016 2.06445 19.4141 1.08789C18.6328 1.55664 17.7344 1.9082 16.8359 2.10352C16.0547 1.2832 15 0.814453 13.8281 0.814453C11.5625 0.814453 9.72656 2.65039 9.72656 4.91602C9.72656 5.22852 9.76562 5.54102 9.84375 5.85352C6.44531 5.6582 3.39844 4.01758 1.36719 1.55664C1.01562 2.14258 0.820312 2.8457 0.820312 3.62695C0.820312 5.0332 1.52344 6.2832 2.65625 7.02539C1.99219 6.98633 1.32812 6.83008 0.78125 6.51758V6.55664C0.78125 8.54883 2.1875 10.1895 4.0625 10.5801C3.75 10.6582 3.35938 10.7363 3.00781 10.7363C2.73438 10.7363 2.5 10.6973 2.22656 10.6582C2.73438 12.2988 4.25781 13.4707 6.05469 13.5098C4.64844 14.6035 2.89062 15.2676 0.976562 15.2676C0.625 15.2676 0.3125 15.2285 0 15.1895C1.79688 16.3613 3.94531 17.0254 6.28906 17.0254C13.8281 17.0254 17.9297 10.8145 17.9297 5.38477C17.9297 5.18945 17.9297 5.0332 17.9297 4.83789Z" fill="white"/>
</svg>
