<svg width="19" height="18" viewBox="0 0 19 18" fill="none" xmlns="http://www.w3.org/2000/svg">
<path d="M9.75 4.4082C7.25 4.4082 5.25781 6.43945 5.25781 8.90039C5.25781 11.4004 7.25 13.3926 9.75 13.3926C12.2109 13.3926 14.2422 11.4004 14.2422 8.90039C14.2422 6.43945 12.2109 4.4082 9.75 4.4082ZM9.75 11.8301C8.14844 11.8301 6.82031 10.541 6.82031 8.90039C6.82031 7.29883 8.10938 6.00977 9.75 6.00977C11.3516 6.00977 12.6406 7.29883 12.6406 8.90039C12.6406 10.541 11.3516 11.8301 9.75 11.8301ZM15.4531 4.25195C15.4531 3.66602 14.9844 3.19727 14.3984 3.19727C13.8125 3.19727 13.3438 3.66602 13.3438 4.25195C13.3438 4.83789 13.8125 5.30664 14.3984 5.30664C14.9844 5.30664 15.4531 4.83789 15.4531 4.25195ZM18.4219 5.30664C18.3438 3.90039 18.0312 2.65039 17.0156 1.63477C16 0.619141 14.75 0.306641 13.3438 0.228516C11.8984 0.150391 7.5625 0.150391 6.11719 0.228516C4.71094 0.306641 3.5 0.619141 2.44531 1.63477C1.42969 2.65039 1.11719 3.90039 1.03906 5.30664C0.960938 6.75195 0.960938 11.0879 1.03906 12.5332C1.11719 13.9395 1.42969 15.1504 2.44531 16.2051C3.5 17.2207 4.71094 17.5332 6.11719 17.6113C7.5625 17.6895 11.8984 17.6895 13.3438 17.6113C14.75 17.5332 16 17.2207 17.0156 16.2051C18.0312 15.1504 18.3438 13.9395 18.4219 12.5332C18.5 11.0879 18.5 6.75195 18.4219 5.30664ZM16.5469 14.0566C16.2734 14.8379 15.6484 15.4238 14.9062 15.7363C13.7344 16.2051 11 16.0879 9.75 16.0879C8.46094 16.0879 5.72656 16.2051 4.59375 15.7363C3.8125 15.4238 3.22656 14.8379 2.91406 14.0566C2.44531 12.9238 2.5625 10.1895 2.5625 8.90039C2.5625 7.65039 2.44531 4.91602 2.91406 3.74414C3.22656 3.00195 3.8125 2.41602 4.59375 2.10352C5.72656 1.63477 8.46094 1.75195 9.75 1.75195C11 1.75195 13.7344 1.63477 14.9062 2.10352C15.6484 2.37695 16.2344 3.00195 16.5469 3.74414C17.0156 4.91602 16.8984 7.65039 16.8984 8.90039C16.8984 10.1895 17.0156 12.9238 16.5469 14.0566Z" fill="white"/>
</svg>
